<svg xmlns="http://www.w3.org/2000/svg" width="119.064" height="89.751" viewBox="0 0 119.064 89.751"><defs><style>.a{fill:#2b2b2b;}</style></defs><g transform="translate(-2 -4)"><path class="a" d="M109.157,4H13.906C7.34,4,2,9.032,2,15.219V82.532c0,6.187,5.34,11.219,11.906,11.219h95.251c6.566,0,11.906-5.032,11.906-11.219V15.219C121.064,9.032,115.724,4,109.157,4ZM13.906,82.532V15.219h95.251l.006,67.313Z"/><path class="a" d="M8.977,25.86h17.86a2.977,2.977,0,0,0,2.977-2.977V10.977A2.977,2.977,0,0,0,26.836,8H8.977A2.977,2.977,0,0,0,6,10.977V22.883A2.977,2.977,0,0,0,8.977,25.86ZM6,43.719H41.719V55.632H6Zm41.672,0H77.438V55.632H47.672Z" transform="translate(19.813 17.062)"/></g></svg>