<svg xmlns="http://www.w3.org/2000/svg" width="120.359" height="84.251" viewBox="0 0 120.359 84.251"><defs><style>.a{fill:#2b2b2b;}</style></defs><path class="a" d="M116.341,5H8.018A6.018,6.018,0,0,0,2,11.018V35.09H7.374c5.994,0,11.554,4.1,12.517,10.014A12.042,12.042,0,0,1,8.018,59.161H2V83.233a6.018,6.018,0,0,0,6.018,6.018H116.341a6.018,6.018,0,0,0,6.018-6.018V59.161h-6.018A12.042,12.042,0,0,1,104.467,45.1c.963-5.916,6.523-10.014,12.517-10.014h5.374V11.018A6.018,6.018,0,0,0,116.341,5ZM56.161,77.215H44.126V65.179H56.161Zm0-24.072H44.126V41.108H56.161Zm0-24.072H44.126V17.036H56.161Z" transform="translate(-2 -5)"/></svg>