<svg xmlns="http://www.w3.org/2000/svg" width="160" height="160" viewBox="0 0 160 160"><defs><style>.a{fill:#e2e2e2;}.b{fill:#2b2b2b;}</style></defs><g transform="translate(11.865 4.836)"><circle class="a" cx="80" cy="80" r="80" transform="translate(-11.865 -4.836)"/><g transform="translate(25.397 36.232)"><ellipse class="b" cx="6.855" cy="6.328" rx="6.855" ry="6.328" transform="translate(29.837 65.209)"/><circle class="b" cx="6.328" cy="6.328" r="6.328" transform="translate(60.421 65.209)"/><path class="b" d="M22.944,39.507H31.6V26.572H44.53V17.921H31.6V5.03H22.944V17.921H10.01v8.652H22.944Z" transform="translate(24.64 3.751)"/><path class="b" d="M36.606,63.561H71.213a4.326,4.326,0,0,0,4.023-2.769L87.478,28.955H78.22L68.228,54.91H39.5L20.082,8.321a8.652,8.652,0,0,0-8-5.321H2v8.652H12.079L32.627,60.879A4.326,4.326,0,0,0,36.606,63.561Z" transform="translate(-2 -3)"/></g></g></svg>