<svg xmlns="http://www.w3.org/2000/svg" xmlns:xlink="http://www.w3.org/1999/xlink" width="5" height="225" viewBox="0 0 5 225"><defs><style>.a{fill:none;}.b{clip-path:url(#a);}</style><clipPath id="a"><rect class="a" width="5" height="225"/></clipPath></defs><g class="b"><g transform="translate(-830 -893)"><circle cx="2.5" cy="2.5" r="2.5" transform="translate(830 893)"/><circle cx="2.5" cy="2.5" r="2.5" transform="translate(830 901)"/><circle cx="2.5" cy="2.5" r="2.5" transform="translate(830 909)"/></g><g transform="translate(-830 -825)"><circle cx="2.5" cy="2.5" r="2.5" transform="translate(830 893)"/><circle cx="2.5" cy="2.5" r="2.5" transform="translate(830 901)"/><circle cx="2.5" cy="2.5" r="2.5" transform="translate(830 909)"/></g><g transform="translate(-830 -757)"><circle cx="2.5" cy="2.5" r="2.5" transform="translate(830 893)"/><circle cx="2.5" cy="2.5" r="2.5" transform="translate(830 901)"/><circle cx="2.5" cy="2.5" r="2.5" transform="translate(830 909)"/></g><g transform="translate(-830 -689)"><circle cx="2.5" cy="2.5" r="2.5" transform="translate(830 893)"/><circle cx="2.5" cy="2.5" r="2.5" transform="translate(830 901)"/><circle cx="2.5" cy="2.5" r="2.5" transform="translate(830 909)"/></g></g></svg>